<?xml version="1.0" encoding="UTF-8"?><svg id="Camada_2" xmlns="http://www.w3.org/2000/svg" viewBox="0 0 313.23 313.23"><defs><style>.cls-1{fill:#00cd0d;}.cls-1,.cls-2{stroke-width:0px;}.cls-2{fill:#fff;}</style></defs><g id="CONTEUDO"><rect class="cls-1" width="313.23" height="313.23" rx="25" ry="25"/><path class="cls-2" d="M67.99,122.29h12.04c.26,1.03.49,1.92.71,2.82,1.21,4.78,4.18,7.81,8.94,9.1,4.52,1.22,9.07,1.41,13.63.38,5.28-1.19,8.18-4.53,8.41-9.49.24-5.41-2.03-8.79-7.55-10.37-4-1.14-8.17-1.65-12.22-2.62-3.74-.89-7.52-1.76-11.11-3.1-7.6-2.83-11.14-8.67-11.48-16.64-.33-7.65,2.41-13.85,9.2-17.53,3.4-1.84,7.35-3.03,11.19-3.64,6.63-1.05,13.31-.86,19.75,1.54,8.27,3.08,12.54,9.23,13.84,18.21-3.71.62-7.35,1.23-11.14,1.86-.62-1.58-1.14-3.02-1.76-4.42-1.78-4.03-4.85-6.36-9.24-7.08-4.41-.72-8.75-.63-12.99.72-4.27,1.36-6.45,4.17-6.58,8.15-.15,4.51,1.68,7.66,6.2,9.01,5.07,1.52,10.37,2.25,15.51,3.59,3.71.96,7.43,2.08,10.95,3.6,13.37,5.75,13.04,26.65,2.7,33.67-4.16,2.83-8.69,4.58-13.63,5.07-6.68.67-13.34.43-19.81-1.71-9.66-3.19-15.17-10.56-15.55-21.13Z"/><path class="cls-2" d="M72.4,151.92c11.16.3,22.08.59,33.01.92.92.03,1.84.34,2.75.58,9.84,2.62,14.95,8.68,15.28,18.77.12,3.59-.28,7.36-1.28,10.8-2.3,7.92-8.53,11.58-16.14,13-3.76.7-7.67.66-11.52.8-3.32.12-6.64.03-10.24.03v26.05h-11.85v-70.94ZM84.28,186.95c6.28-.32,12.4-.37,18.46-1.02,3.93-.42,7.16-2.64,8.1-6.78.55-2.39.53-4.96.41-7.43-.22-4.68-2.98-7.43-7.4-8.48-6.45-1.54-12.98-.75-19.58-.82v24.53Z"/><path class="cls-2" d="M173.39,222.97h-10.86v-6.06c-.9.71-1.38,1.04-1.79,1.43-6.14,5.91-13.47,7.18-21.48,5.31-6.18-1.44-10.05-5.35-11.13-11.69-1.21-7.04,1.26-12.73,6.93-16.18,4.49-2.73,9.52-3.59,14.64-4.04,4.03-.35,8.07-.57,12.07-.84,1.01-6.17-.89-10.13-5.44-11.58-6.7-2.13-12.46.07-15.47,6.2-3.21-.32-6.56-.66-10.19-1.02.87-5.58,3.28-9.82,8.18-12.06,7.93-3.62,16.19-3.9,24.35-.87,6.65,2.47,9.57,7.99,9.84,14.69.38,9.7.26,19.41.35,29.12.02,2.48,0,4.95,0,7.59ZM161.75,198.71c-3.7.23-7.27.21-10.76.73-2.74.41-5.52,1.19-8.04,2.32-2.82,1.27-3.98,4.43-3.47,7.72.49,3.13,2.14,5,5.47,5.59,9.18,1.64,18.7-2.77,16.8-16.37Z"/><path class="cls-2" d="M218.86,171.74h12.26c-.15.63-.21,1.13-.39,1.59-7.59,19.2-15.2,38.39-22.81,57.58-.35.87-.8,1.7-1.2,2.54-4.23,8.95-12.9,11.32-23.67,7.27.63-2.69,1.27-5.4,1.98-8.43,1.45.22,2.75.46,4.05.62,4.35.52,6.65-.75,8.57-4.67.05-.09.08-.19.13-.28,2.21-3.95,2.43-7.58.35-12.02-6.29-13.4-11.97-27.08-17.89-40.66-.45-1.04-.87-2.09-1.42-3.43h13.25c4.51,11.83,9.11,23.87,13.96,36.58,4.42-12.64,8.63-24.67,12.84-36.69Z"/><path class="cls-2" d="M167.64,92.14h11.41v51.18h-10.97v-5.88c-.22-.14-.44-.28-.67-.41-.55.72-1.03,1.5-1.65,2.15-6.06,6.34-13.47,7.59-21.56,5.24-6.42-1.86-8.94-7.08-9.27-13.15-.47-8.85-.34-17.73-.44-26.59-.04-4.06,0-8.11,0-12.4h11.51c0,1.05,0,2.16,0,3.26,0,9.18,0,18.37.02,27.55,0,1.88-.02,3.77.21,5.63.59,4.71,3.27,7.04,7.96,7.13,7.18.14,13.2-5.34,13.35-12.52.19-9.18.08-18.37.1-27.55,0-1.12,0-2.25,0-3.63Z"/><path class="cls-2" d="M219.46,100.88h-7.95v-8.69h7.82v-13.66h11.38v13.41h12.72v8.9h-12.6c0,3.19,0,5.98,0,8.77,0,5.64-.02,11.28,0,16.91.03,7.46,2.51,9.55,9.88,8.38.81-.13,1.63-.21,2.8-.36.57,2.81,1.12,5.51,1.75,8.59-6.76,1.95-13.33,2.9-19.75-.47-3.29-1.73-4.64-5.05-5.29-8.5-.51-2.64-.68-5.38-.71-8.08-.09-8.24-.03-16.48-.03-25.21Z"/><path class="cls-2" d="M203.41,143.39h-11.26v-51.18h11.26v51.18Z"/><path class="cls-2" d="M203.63,72.85v10.96h-11.51v-10.96h11.51Z"/></g></svg>