<svg width="396" height="107" viewBox="0 0 396 107" fill="none" xmlns="http://www.w3.org/2000/svg">
<g clip-path="url(#clip0_1017_14)">
<path d="M0 59.4113H13.83C14.13 60.5913 14.39 61.6213 14.65 62.6513C16.04 68.1413 19.45 71.6213 24.93 73.1013C30.12 74.5113 35.35 74.7213 40.59 73.5413C46.66 72.1713 49.99 68.3413 50.25 62.6313C50.53 56.4213 47.91 52.5213 41.57 50.7213C36.98 49.4113 32.18 48.8213 27.53 47.7113C23.23 46.6813 18.88 45.6913 14.75 44.1513C6.02 40.9013 1.95 34.1913 1.56 25.0313C1.18 16.2413 4.33 9.11129 12.14 4.89129C16.05 2.77129 20.59 1.41129 25 0.711293C32.62 -0.498707 40.3 -0.278707 47.7 2.48129C57.2 6.02129 62.11 13.0913 63.6 23.4113C59.33 24.1213 55.16 24.8213 50.8 25.5513C50.08 23.7313 49.49 22.0713 48.78 20.4613C46.73 15.8213 43.21 13.1513 38.16 12.3213C33.1 11.4913 28.11 11.6013 23.23 13.1513C18.32 14.7113 15.82 17.9513 15.66 22.5213C15.48 27.7013 17.6 31.3313 22.79 32.8813C28.62 34.6213 34.71 35.4713 40.62 37.0013C44.89 38.1113 49.16 39.3913 53.2 41.1313C68.56 47.7413 68.19 71.7613 56.3 79.8313C51.51 83.0813 46.31 85.0913 40.63 85.6613C32.95 86.4313 25.3 86.1513 17.86 83.6913C6.77 80.0313 0.44 71.5613 0 59.4113Z" fill="white"/>
<path d="M226.451 42.3791C233.671 42.0191 240.711 41.9591 247.671 41.2091C252.191 40.7191 255.901 38.1691 256.981 33.4091C257.611 30.6691 257.591 27.7091 257.451 24.8691C257.191 19.4791 254.021 16.3291 248.941 15.1191C241.531 13.3491 234.021 14.2591 226.441 14.1691V42.3691L226.451 42.3791ZM212.801 2.11914C225.621 2.46914 238.181 2.79914 250.741 3.17914C251.801 3.20914 252.861 3.56914 253.901 3.83914C265.211 6.85914 271.091 13.8191 271.461 25.4191C271.591 29.5491 271.141 33.8791 269.991 37.8391C267.341 46.9391 260.181 51.1491 251.441 52.7791C247.121 53.5791 242.621 53.5391 238.201 53.6991C234.391 53.8391 230.561 53.7291 226.431 53.7291V83.6691H212.811V2.11914H212.801Z" fill="white"/>
<path d="M315.5 55.9003C311.24 56.1603 307.14 56.1403 303.13 56.7403C299.98 57.2103 296.79 58.1003 293.89 59.4103C290.65 60.8703 289.31 64.5003 289.9 68.2903C290.46 71.8903 292.35 74.0303 296.19 74.7203C306.74 76.6103 317.69 71.5403 315.5 55.9003ZM328.88 83.7903H316.39V76.8203C315.35 77.6403 314.8 78.0103 314.33 78.4603C307.27 85.2503 298.85 86.7103 289.64 84.5703C282.54 82.9103 278.09 78.4203 276.84 71.1303C275.45 63.0403 278.28 56.5003 284.81 52.5303C289.97 49.3903 295.76 48.4003 301.64 47.8903C306.27 47.4903 310.92 47.2403 315.51 46.9203C316.67 39.8303 314.49 35.2703 309.26 33.6103C301.56 31.1603 294.94 33.6903 291.48 40.7403C287.8 40.3703 283.94 39.9803 279.77 39.5603C280.77 33.1503 283.55 28.2803 289.18 25.7003C298.3 21.5303 307.79 21.2203 317.17 24.7003C324.81 27.5403 328.17 33.8803 328.48 41.5903C328.92 52.7403 328.78 63.9003 328.88 75.0603C328.91 77.9103 328.88 80.7503 328.88 83.7803" fill="white"/>
<path d="M381.139 24.9006H395.229C395.059 25.6206 394.989 26.2006 394.779 26.7306C386.049 48.8006 377.309 70.8606 368.559 92.9106C368.159 93.9106 367.639 94.8606 367.179 95.8406C362.309 106.131 352.349 108.851 339.969 104.191C340.699 101.101 341.429 97.9806 342.239 94.5006C343.909 94.7606 345.399 95.0306 346.899 95.2106C351.899 95.8106 354.549 94.3506 356.749 89.8406C356.799 89.7306 356.839 89.6206 356.899 89.5106C359.439 84.9706 359.699 80.7906 357.309 75.7006C350.079 60.3006 343.549 44.5706 336.749 28.9706C336.229 27.7806 335.759 26.5606 335.119 25.0306H350.349C355.539 38.6206 360.819 52.4706 366.389 67.0706C371.469 52.5406 376.309 38.7206 381.149 24.8906" fill="white"/>
<path d="M114.55 24.7598H127.66V83.5798H115.05V76.8198C114.79 76.6598 114.54 76.4998 114.28 76.3398C113.65 77.1698 113.1 78.0698 112.38 78.8198C105.41 86.1098 96.9 87.5398 87.6 84.8498C80.22 82.7098 77.32 76.7098 76.95 69.7398C76.41 59.5698 76.55 49.3598 76.45 39.1698C76.4 34.5098 76.45 29.8498 76.45 24.9198H89.68V28.6698C89.68 39.2298 89.68 49.7798 89.7 60.3398C89.7 62.4998 89.67 64.6798 89.94 66.8098C90.62 72.2198 93.7 74.8998 99.09 75.0098C107.34 75.1698 114.26 68.8798 114.44 60.6198C114.66 50.0698 114.53 39.5098 114.56 28.9498C114.56 27.6598 114.56 26.3698 114.56 24.7698" fill="white"/>
<path d="M174.101 34.8109H164.961V24.8309H173.951V9.13086H187.031V24.5509H201.651V34.7809H187.161C187.161 38.4409 187.161 41.6509 187.161 44.8609C187.161 51.3409 187.141 57.8209 187.161 64.3009C187.201 72.8809 190.041 75.2709 198.521 73.9309C199.451 73.7809 200.401 73.6909 201.731 73.5109C202.391 76.7409 203.021 79.8509 203.741 83.3909C195.971 85.6309 188.411 86.7209 181.041 82.8509C177.261 80.8709 175.711 77.0409 174.961 73.0809C174.381 70.0409 174.171 66.8909 174.141 63.7909C174.041 54.3209 174.101 44.8509 174.101 34.8109Z" fill="white"/>
<path d="M155.661 24.8398H142.711V83.6598H155.661V24.8398Z" fill="white"/>
<path d="M155.91 2.58984H142.68V15.1898H155.91V2.58984Z" fill="white"/>
</g>
<defs>
<clipPath id="clip0_1017_14">
<rect width="395.23" height="106.39" fill="white"/>
</clipPath>
</defs>
</svg>
