<?xml version="1.0" encoding="UTF-8"?>
<svg id="Camada_2" data-name="Camada 2" xmlns="http://www.w3.org/2000/svg" viewBox="0 0 170.85 170.78">
  <defs>
    <style>
      .cls-1 {
        font-family: ArticulatCF-Bold, 'Articulat CF';
        font-size: 27.39px;
        font-weight: 700;
      }

      .cls-1, .cls-2 {
        fill: #fff;
      }

      .cls-3 {
        letter-spacing: .05em;
      }

      .cls-4 {
        letter-spacing: .02em;
      }

      .cls-5 {
        fill: #c70005;
      }
    </style>
  </defs>
  <g id="CONTEUDO">
    <rect width="170.78" height="170.78" rx="9.07" ry="9.07"/>
    <path class="cls-5" d="M.07,116.02h170.78v45.77c0,4.92-4,8.92-8.92,8.92H8.99c-4.92,0-8.92-4-8.92-8.92v-45.77H.07Z"/>
    <text class="cls-1" transform="translate(39.98 153.05)"><tspan class="cls-4" x="0" y="0">S</tspan><tspan class="cls-3" x="18.24" y="0">ALES</tspan></text>
    <g>
      <path class="cls-2" d="M30.88,65.64h8.3c.25,4.18,2.95,7.5,9.35,7.5,5.54,0,8.43-2.34,8.43-6.27,0-3.44-2.4-5.04-6.58-5.84l-6.03-1.17c-7.01-1.35-12.3-4.61-12.3-12,0-7.87,6.27-12.18,15.87-12.18s16.42,4.49,16.42,12.73h-8.3c0-3.87-3.2-5.97-8-5.97-5.47,0-7.5,2.71-7.5,5.66,0,2.4,1.35,4.67,5.66,5.47l5.72,1.11c9.47,1.78,13.59,5.47,13.59,12.18,0,8.86-7.26,13.04-17.04,13.04-10.95,0-17.59-5.29-17.59-14.27Z"/>
      <path class="cls-2" d="M101,47.31v31.99h-7.87v-6.58h-.31c-.62,2.77-3.69,7.2-10.46,7.2-6.21,0-11.13-3.81-11.13-12.49v-20.11h7.87v18.27c0,5.23,2.28,7.81,6.58,7.81s7.44-2.58,7.44-7.81v-18.27h7.87Z"/>
      <path class="cls-2" d="M107.03,38.51c0-2.46,2.09-4.37,4.49-4.37s4.43,1.91,4.43,4.37-2.09,4.31-4.43,4.31-4.49-1.91-4.49-4.31ZM107.58,47.31h7.87v31.99h-7.87v-31.99Z"/>
      <path class="cls-2" d="M139.75,73.39v6.15c-1.6.19-3.08.19-4.61.19-5.9,0-9.9-2.65-9.9-9.41v-16.91h-5.35v-6.09h5.35v-8.18h7.87v8.18h6.27v6.09h-6.27v15.68c0,2.77.98,4.31,4,4.31h2.64Z"/>
    </g>
  </g>
</svg>