<svg width="246" height="58" viewBox="0 0 246 58" fill="none" xmlns="http://www.w3.org/2000/svg">
<path fill-rule="evenodd" clip-rule="evenodd" d="M238.47 57.2399H84.0901V0.859863H238.47C242.59 0.859863 245.59 3.84987 245.59 7.11987V50.5499C245.59 54.2399 242.6 57.2399 238.47 57.2399Z" fill="#D81316"/>
<path fill-rule="evenodd" clip-rule="evenodd" d="M6.69 0.859863H84.09V57.2399H6.69C3 57.2399 0 54.2499 0 50.5499V7.11987C0 3.84987 2.99 0.859863 6.69 0.859863Z" fill="black"/>
<path fill-rule="evenodd" clip-rule="evenodd" d="M62.5901 37.25C62.9401 37.25 63.1801 37.25 63.5501 37.2V38.83C63.0701 38.94 62.5601 39.02 62.0001 39.02C59.9101 39.02 58.4401 38.14 58.4401 35.58V26.69H56.1901V24.95H58.4401V21.48H60.5801V24.95H63.3301V26.69H60.5801V35.18C60.5801 36.68 61.0901 37.26 62.5901 37.26V37.25ZM52.9901 22.19C52.2701 22.19 51.6301 21.58 51.6301 20.83C51.6301 20.08 52.2701 19.5 52.9901 19.5C53.7101 19.5 54.3301 20.09 54.3301 20.83C54.3301 21.57 53.7201 22.19 52.9901 22.19ZM46.6801 36.1H46.6301C46.3901 37.03 45.0501 39.09 41.8401 39.09C39.0901 39.09 36.8701 37.6 36.8701 33.51V24.94H39.0101V33.08C39.0101 35.72 40.1301 37.27 42.5901 37.27C45.0501 37.27 46.6801 35.72 46.6801 33.08V24.94H48.8201V38.82H46.6801V36.1ZM26.3001 28.01L28.7101 28.49C32.1301 29.18 34.1701 30.6 34.1701 33.64C34.1701 37.11 31.5201 39.09 27.2401 39.09C22.5301 39.09 20.0701 36.71 20.0701 33.38H22.2901C22.4201 35.52 23.8901 37.2 27.2601 37.2C30.3401 37.2 31.8601 35.78 31.8601 33.68C31.8601 31.58 30.3601 30.74 28.1701 30.32L25.6801 29.81C22.4201 29.17 20.6001 27.59 20.6001 24.9C20.6001 21.86 22.9001 19.91 27.1001 19.91C31.3001 19.91 33.6001 21.86 33.6001 24.9H31.4101C31.3301 23.11 29.9401 21.78 27.0801 21.78C24.2201 21.78 22.9101 23.17 22.9101 24.9C22.9101 26.42 23.8501 27.54 26.3101 28.02L26.3001 28.01ZM54.0601 38.82H51.9201V24.94H54.0601V38.82Z" fill="white"/>
<path d="M121.42 32.3502H125.57C125.65 34.0402 126.72 35.4302 129.29 35.4302C131.46 35.4302 132.61 34.5202 132.61 32.9902C132.61 31.7102 131.75 31.0602 130.07 30.7402L127.37 30.2302C124.43 29.6402 121.94 28.3002 121.94 24.9002C121.94 21.3102 124.83 19.4902 129.03 19.4902C133.23 19.4902 136.37 21.4202 136.37 25.2502H132.25C132.3 23.5602 130.91 22.8102 129.09 22.8102C126.95 22.8102 126.15 23.9102 126.15 25.0602C126.15 25.9202 126.6 26.8302 128.29 27.1202L130.81 27.6002C135.2 28.4302 136.89 30.1202 136.89 32.9502C136.89 36.9902 133.54 38.7302 129.29 38.7302C124.5 38.7302 121.45 36.4502 121.45 32.3302L121.42 32.3502Z" fill="white"/>
<path d="M152.02 34.9702H144.12L142.92 38.4802H138.72L145.49 19.7402H150.66L157.43 38.4802H153.23L152.03 34.9702H152.02ZM151 32.0002L148.19 23.8402H147.95L145.14 32.0002H151Z" fill="white"/>
<path d="M160.61 19.7402H164.63V35.0002H173.25V38.4802H160.61V19.7402Z" fill="white"/>
<path d="M176.7 19.7405H189.5V23.2205H180.72V27.4205H188.7V30.5505H180.72V34.9905H189.77V38.4705H176.71V19.7305L176.7 19.7405Z" fill="white"/>
<path d="M192.81 32.3502H196.96C197.04 34.0402 198.11 35.4302 200.68 35.4302C202.85 35.4302 204 34.5202 204 32.9902C204 31.7102 203.14 31.0602 201.46 30.7402L198.76 30.2302C195.82 29.6402 193.33 28.3002 193.33 24.9002C193.33 21.3102 196.22 19.4902 200.42 19.4902C204.62 19.4902 207.76 21.4202 207.76 25.2502H203.64C203.69 23.5602 202.3 22.8102 200.48 22.8102C198.34 22.8102 197.54 23.9102 197.54 25.0602C197.54 25.9202 197.99 26.8302 199.68 27.1202L202.2 27.6002C206.59 28.4302 208.28 30.1202 208.28 32.9502C208.28 36.9902 204.93 38.7302 200.68 38.7302C195.89 38.7302 192.84 36.4502 192.84 32.3302L192.81 32.3502Z" fill="white"/>
</svg>
