<?xml version="1.0" encoding="UTF-8"?>
<svg id="Layer_1" data-name="Layer 1" xmlns="http://www.w3.org/2000/svg" viewBox="0 0 245.59 56.38">
  <defs>
    <style>
      .cls-1 {
        fill: #fff;
      }

      .cls-1, .cls-2, .cls-3 {
        fill-rule: evenodd;
      }

      .cls-2 {
        fill: #6ec6d8;
      }
    </style>
  </defs>
  <path class="cls-2" d="M238.47,56.38H84.09V0h154.38c4.12,0,7.12,2.99,7.12,6.26v43.43c0,3.69-2.99,6.69-7.12,6.69Z"/>
  <path class="cls-3" d="M6.69,0h77.4v56.38H6.69c-3.69,0-6.69-2.99-6.69-6.69V6.26C0,2.99,2.99,0,6.69,0Z"/>
  <g>
    <path d="M215.53,31.49s.04-.08.08-.08c0,0,0,0,0,0h3.93c.09,0,.16.06.18.14.03.1.05.22.07.35.27,1.5,1.29,2.34,2.86,2.51,1.5.17,3.52-.08,3.99-1.72.48-1.69-.86-2.5-2.3-2.78-3.77-.74-8.85-1.25-8.25-6.58.55-4.88,6.84-5.31,10.37-4.34,2.55.7,3.92,2.43,4.1,5.18,0,.1-.07.19-.17.2,0,0,0,0-.01,0h-3.89c-.07,0-.12-.05-.12-.12-.05-.94-.46-1.59-1.2-1.93-1.44-.66-4.85-.72-4.87,1.73,0,1.05.92,1.67,1.88,1.92,2.77.72,6.93.83,8.4,3.85.42.85.55,1.86.4,3.02-.31,2.39-1.79,3.93-4.46,4.59-2.79.7-6.69.52-8.91-1.28-1.34-1.08-2.03-2.64-2.08-4.66Z"/>
    <path d="M174.58,27.35c.08.04.33.15.74.32,1.66.68,2.73,2.04,2.87,3.84.15,2.05-.43,3.7-2.17,4.89-1.32.91-3.08,1.15-4.95,1.15-2.4,0-4.98,0-7.74,0-.04,0-.08-.04-.08-.08h0v-18.6s.04-.08.08-.08h0c4.37,0,6.74,0,7.09.01,1.9.05,4.01.17,5.39,1.65.76.81,1.11,1.94,1.06,3.38-.07,1.72-.83,2.85-2.28,3.4-.04.01-.06.05-.05.09,0,.02.02.03.04.04ZM167.25,22.29l.02,4.09c0,.06.05.11.11.11,0,0,0,0,0,0l3.36-.02c1.16,0,2.1-.93,2.09-2.06v-.2c0-1.13-.95-2.04-2.12-2.04h0l-3.36.02c-.06,0-.11.05-.11.11ZM167.27,29.12l-.02,4.98s.04.08.08.08l3.96.02c1.5,0,2.73-1.05,2.73-2.37,0,0,0,0,0,0v-.37c0-1.32-1.2-2.39-2.71-2.4l-3.96-.02s-.08.03-.08.08c0,0,0,0,0,0Z"/>
    <path d="M108.6,31.86s.06-.03.08-.09c1.79-4.84,3.37-9.1,4.75-12.79.03-.08.11-.14.2-.14h4.77c.09,0,.17.08.17.17h0v18.46s-.04.08-.08.08h-3.77c-.09,0-.16-.07-.16-.16h0v-11.51s-.02-.06-.06-.06c-.03,0-.05.02-.06.04l-4.23,11.54c-.03.08-.1.13-.18.14-.08,0-.55.01-1.42.01s-1.34,0-1.42-.01c-.08,0-.15-.06-.18-.14l-4.23-11.54s-.04-.05-.08-.04c-.03,0-.05.03-.04.06v11.51c0,.09-.07.16-.16.16h-3.77s-.08-.04-.08-.08h0v-18.46c0-.09.08-.17.17-.17h4.77c.09,0,.17.06.2.14,1.38,3.69,2.96,7.95,4.75,12.79.02.06.05.09.08.09Z"/>
    <path d="M135.64,37.54h-12.85c-.06,0-.1-.05-.1-.1v-18.49c0-.06.05-.1.1-.1h12.55c.06,0,.1.05.1.1v3.25c0,.06-.05.1-.1.1h-8.54c-.06,0-.1.05-.1.1v4.1c0,.06.05.1.1.1h7.75c.06,0,.1.05.1.1v2.89c0,.06-.05.1-.1.1h-7.75c-.06,0-.1.05-.1.1h0v4.16c0,.06.05.1.1.1h8.84c.06,0,.1.05.1.1v3.25c0,.06-.05.1-.1.1Z"/>
    <path d="M149.16,37.54c-.86,0-1.34,0-1.42-.01-.08,0-.15-.06-.18-.14l-4.23-11.54s-.04-.05-.08-.04c-.03,0-.05.03-.04.06v11.51c0,.09-.07.16-.16.16h-3.77s-.08-.04-.08-.08h0s0-18.46,0-18.46c0-.09.08-.17.17-.17h4.77c.09,0,.17.06.2.14,1.38,3.69,2.96,7.95,4.75,12.79.02.06.05.09.08.09.03,0,.06-.03.08-.09,1.79-4.84,3.37-9.1,4.75-12.79.03-.08.11-.14.2-.14h4.77c.09,0,.17.08.17.17h0v18.46s-.04.08-.09.08h-3.77c-.09,0-.16-.07-.16-.16h0v-11.51s-.02-.06-.06-.06c-.03,0-.05.02-.06.04l-4.23,11.54c-.03.08-.1.13-.18.14-.08,0-.55.01-1.42.01Z"/>
    <path d="M194.36,34.08c.09,0,.16.07.16.16v3.21s-.04.09-.09.09h-12.9s-.08-.03-.08-.08v-18.55s.03-.08.08-.08h12.51c.09,0,.16.07.16.16v3.16c0,.08-.06.14-.14.14h-8.46c-.08,0-.15.06-.15.14h0v4.01c0,.09.07.16.16.16h7.65c.08,0,.15.07.15.15v2.85c0,.05-.05.1-.1.1h-7.7c-.09,0-.16.07-.16.16v4.08c0,.07.06.13.14.13h8.75Z"/>
    <path d="M212.73,37.54h-3.65c-.09,0-.17-.05-.22-.13l-3.48-6.02c-.04-.07-.11-.11-.19-.11h-3.05c-.08,0-.15.07-.15.15v5.92c0,.11-.09.19-.2.19h-3.73s-.08-.04-.08-.08h0v-18.47c0-.08.07-.15.15-.15h0c2.5,0,5.39,0,8.69,0,.2,0,.63.08,1.29.23,2.73.64,4.25,2.33,4.55,5.08.26,2.39-.47,5.14-2.82,6.27-.36.17-.58.29-.66.34-.07.04-.09.13-.05.2l3.69,6.4c.03.05.01.12-.04.16-.02.01-.04.02-.06.02ZM201.98,22.41l.02,5.32s.04.09.09.09h3.72c1.54-.02,2.78-1.17,2.78-2.57v-.4c0-1.41-1.26-2.55-2.79-2.54h-3.72s-.09.05-.09.1Z"/>
  </g>
  <path class="cls-1" d="M62.59,36.39c.35,0,.59,0,.96-.05v1.63c-.48.11-.99.19-1.55.19-2.09,0-3.56-.88-3.56-3.44v-8.89h-2.25v-1.74h2.25v-3.47h2.14v3.47h2.75v1.74h-2.75v8.49c0,1.5.51,2.08,2.01,2.08ZM52.99,21.33c-.72,0-1.36-.61-1.36-1.36s.64-1.33,1.36-1.33,1.34.59,1.34,1.33-.61,1.36-1.34,1.36ZM46.68,35.24h-.05c-.24.93-1.58,2.99-4.79,2.99-2.75,0-4.97-1.49-4.97-5.58v-8.57h2.14v8.14c0,2.64,1.12,4.19,3.58,4.19s4.09-1.55,4.09-4.19v-8.14h2.14v13.88h-2.14v-2.72ZM26.3,27.15l2.41.48c3.42.69,5.46,2.11,5.46,5.15,0,3.47-2.65,5.45-6.93,5.45-4.71,0-7.17-2.38-7.17-5.71h2.22c.13,2.14,1.6,3.82,4.97,3.82,3.08,0,4.6-1.42,4.6-3.52s-1.5-2.94-3.69-3.36l-2.49-.51c-3.26-.64-5.08-2.22-5.08-4.91,0-3.04,2.3-4.99,6.5-4.99s6.5,1.95,6.5,4.99h-2.19c-.08-1.79-1.47-3.12-4.33-3.12s-4.17,1.39-4.17,3.12c0,1.52.94,2.64,3.4,3.12ZM54.06,37.96h-2.14v-13.88h2.14v13.88Z"/>
</svg>